<mxfile host="65bd71144e">
    <diagram name="Spectral - User Interface" id="fhNVKtkbzgT4LdjPAg_A">
        <mxGraphModel dx="2644" dy="753" grid="1" gridSize="10" guides="1" tooltips="1" connect="1" arrows="1" fold="1" page="1" pageScale="1" pageWidth="850" pageHeight="1100" math="0" shadow="0">
            <root>
                <mxCell id="k_Zv6ehU1yhQcLJYLRDA-0"/>
                <mxCell id="k_Zv6ehU1yhQcLJYLRDA-1" parent="k_Zv6ehU1yhQcLJYLRDA-0"/>
                <mxCell id="k_Zv6ehU1yhQcLJYLRDA-9" value="Spectral" style="shape=umlFrame;whiteSpace=wrap;html=1;width=120;height=30;boundedLbl=1;verticalAlign=middle;align=left;spacingLeft=5;" parent="k_Zv6ehU1yhQcLJYLRDA-1" vertex="1">
                    <mxGeometry x="40" y="40" width="1440" height="360" as="geometry"/>
                </mxCell>
                <mxCell id="k_Zv6ehU1yhQcLJYLRDA-10" value="Login Page" style="rounded=0;whiteSpace=wrap;html=1;" parent="k_Zv6ehU1yhQcLJYLRDA-1" vertex="1">
                    <mxGeometry x="80" y="120" width="240" height="60" as="geometry"/>
                </mxCell>
                <mxCell id="k_Zv6ehU1yhQcLJYLRDA-11" value="Dashboard Page" style="rounded=0;whiteSpace=wrap;html=1;" parent="k_Zv6ehU1yhQcLJYLRDA-1" vertex="1">
                    <mxGeometry x="640" y="120" width="240" height="60" as="geometry"/>
                </mxCell>
                <mxCell id="k_Zv6ehU1yhQcLJYLRDA-12" value="- Project list&lt;br&gt;- Func: Search project&lt;br&gt;- Func: Create project&lt;br&gt;- Func:&amp;nbsp;Rename project&lt;br&gt;- Func:&amp;nbsp;Update project&lt;br&gt;- Func:&amp;nbsp;Delete project" style="rounded=0;whiteSpace=wrap;html=1;align=left;spacingTop=5;spacingLeft=5;spacingBottom=5;spacingRight=5;" parent="k_Zv6ehU1yhQcLJYLRDA-1" vertex="1">
                    <mxGeometry x="640" y="180" width="240" height="140" as="geometry"/>
                </mxCell>
                <mxCell id="k_Zv6ehU1yhQcLJYLRDA-13" value="Create Project Page" style="rounded=0;whiteSpace=wrap;html=1;" parent="k_Zv6ehU1yhQcLJYLRDA-1" vertex="1">
                    <mxGeometry x="920" y="120" width="240" height="60" as="geometry"/>
                </mxCell>
                <mxCell id="k_Zv6ehU1yhQcLJYLRDA-14" value="- Input project name&lt;br&gt;- Add description&lt;br&gt;- Set MS Convert parameters&lt;br&gt;- Add mass spec data to convert" style="rounded=0;whiteSpace=wrap;html=1;align=left;spacingTop=5;spacingLeft=5;spacingBottom=5;spacingRight=5;" parent="k_Zv6ehU1yhQcLJYLRDA-1" vertex="1">
                    <mxGeometry x="920" y="180" width="240" height="140" as="geometry"/>
                </mxCell>
                <mxCell id="k_Zv6ehU1yhQcLJYLRDA-15" value="Update Project Page" style="rounded=0;whiteSpace=wrap;html=1;" parent="k_Zv6ehU1yhQcLJYLRDA-1" vertex="1">
                    <mxGeometry x="1200" y="120" width="240" height="60" as="geometry"/>
                </mxCell>
                <mxCell id="k_Zv6ehU1yhQcLJYLRDA-16" value="- Update project name&lt;br&gt;- Edit description&lt;br&gt;- Add and remove mass spec data" style="rounded=0;whiteSpace=wrap;html=1;align=left;spacingTop=5;spacingLeft=5;spacingBottom=5;spacingRight=5;" parent="k_Zv6ehU1yhQcLJYLRDA-1" vertex="1">
                    <mxGeometry x="1200" y="180" width="240" height="140" as="geometry"/>
                </mxCell>
                <mxCell id="k_Zv6ehU1yhQcLJYLRDA-17" value="- Email&lt;br&gt;- Password&lt;br&gt;- Func: Forgot password&lt;br&gt;- Func: Sign up" style="rounded=0;whiteSpace=wrap;html=1;align=left;spacingTop=5;spacingLeft=5;spacingBottom=5;spacingRight=5;" parent="k_Zv6ehU1yhQcLJYLRDA-1" vertex="1">
                    <mxGeometry x="80" y="180" width="240" height="140" as="geometry"/>
                </mxCell>
                <mxCell id="k_Zv6ehU1yhQcLJYLRDA-18" value="Profile Page" style="rounded=0;whiteSpace=wrap;html=1;" parent="k_Zv6ehU1yhQcLJYLRDA-1" vertex="1">
                    <mxGeometry x="360" y="120" width="240" height="60" as="geometry"/>
                </mxCell>
                <mxCell id="k_Zv6ehU1yhQcLJYLRDA-19" value="- Email&lt;br&gt;- Func: Change email&lt;br&gt;- Func: Change password&lt;br&gt;- Func: Delete account" style="rounded=0;whiteSpace=wrap;html=1;align=left;spacingTop=5;spacingLeft=5;spacingBottom=5;spacingRight=5;" parent="k_Zv6ehU1yhQcLJYLRDA-1" vertex="1">
                    <mxGeometry x="360" y="180" width="240" height="140" as="geometry"/>
                </mxCell>
                <mxCell id="k_Zv6ehU1yhQcLJYLRDA-20" value="Login Page" style="shape=umlFrame;whiteSpace=wrap;html=1;width=120;height=30;boundedLbl=1;verticalAlign=middle;align=left;spacingLeft=5;" parent="k_Zv6ehU1yhQcLJYLRDA-1" vertex="1">
                    <mxGeometry x="40" y="440" width="320" height="360" as="geometry"/>
                </mxCell>
                <mxCell id="k_Zv6ehU1yhQcLJYLRDA-21" value="Email" style="rounded=0;whiteSpace=wrap;html=1;" parent="k_Zv6ehU1yhQcLJYLRDA-1" vertex="1">
                    <mxGeometry x="80" y="520" width="240" height="40" as="geometry"/>
                </mxCell>
                <mxCell id="k_Zv6ehU1yhQcLJYLRDA-22" value="Password" style="rounded=0;whiteSpace=wrap;html=1;" parent="k_Zv6ehU1yhQcLJYLRDA-1" vertex="1">
                    <mxGeometry x="80" y="570" width="240" height="40" as="geometry"/>
                </mxCell>
                <mxCell id="k_Zv6ehU1yhQcLJYLRDA-23" value="RECAPTCHA" style="rounded=0;whiteSpace=wrap;html=1;" parent="k_Zv6ehU1yhQcLJYLRDA-1" vertex="1">
                    <mxGeometry x="80" y="620" width="240" height="40" as="geometry"/>
                </mxCell>
                <mxCell id="k_Zv6ehU1yhQcLJYLRDA-24" value="Forgot password?" style="text;html=1;strokeColor=none;fillColor=none;align=center;verticalAlign=middle;whiteSpace=wrap;rounded=0;" parent="k_Zv6ehU1yhQcLJYLRDA-1" vertex="1">
                    <mxGeometry x="80" y="720" width="120" height="30" as="geometry"/>
                </mxCell>
                <mxCell id="k_Zv6ehU1yhQcLJYLRDA-25" value="Login" style="rounded=0;whiteSpace=wrap;html=1;" parent="k_Zv6ehU1yhQcLJYLRDA-1" vertex="1">
                    <mxGeometry x="80" y="670" width="240" height="40" as="geometry"/>
                </mxCell>
                <mxCell id="k_Zv6ehU1yhQcLJYLRDA-26" value="Forgot Password Page" style="shape=umlFrame;whiteSpace=wrap;html=1;width=160;height=30;boundedLbl=1;verticalAlign=middle;align=left;spacingLeft=5;" parent="k_Zv6ehU1yhQcLJYLRDA-1" vertex="1">
                    <mxGeometry x="400" y="440" width="320" height="360" as="geometry"/>
                </mxCell>
                <mxCell id="k_Zv6ehU1yhQcLJYLRDA-27" value="Profile Page" style="shape=umlFrame;whiteSpace=wrap;html=1;width=120;height=30;boundedLbl=1;verticalAlign=middle;align=left;spacingLeft=5;" parent="k_Zv6ehU1yhQcLJYLRDA-1" vertex="1">
                    <mxGeometry x="40" y="840" width="320" height="360" as="geometry"/>
                </mxCell>
                <mxCell id="k_Zv6ehU1yhQcLJYLRDA-28" value="Dashboard Page" style="shape=umlFrame;whiteSpace=wrap;html=1;width=120;height=30;boundedLbl=1;verticalAlign=middle;align=left;spacingLeft=5;" parent="k_Zv6ehU1yhQcLJYLRDA-1" vertex="1">
                    <mxGeometry x="40" y="1240" width="1240" height="860" as="geometry"/>
                </mxCell>
                <mxCell id="k_Zv6ehU1yhQcLJYLRDA-29" value="NYNVR" style="rounded=0;whiteSpace=wrap;html=1;" parent="k_Zv6ehU1yhQcLJYLRDA-1" vertex="1">
                    <mxGeometry x="40" y="1280" width="120" height="40" as="geometry"/>
                </mxCell>
                <mxCell id="k_Zv6ehU1yhQcLJYLRDA-30" value="" style="ellipse;whiteSpace=wrap;html=1;aspect=fixed;" parent="k_Zv6ehU1yhQcLJYLRDA-1" vertex="1">
                    <mxGeometry x="1220" y="1277.5" width="45" height="45" as="geometry"/>
                </mxCell>
                <mxCell id="k_Zv6ehU1yhQcLJYLRDA-31" value="&lt;u&gt;Dashboard&lt;/u&gt;" style="rounded=0;whiteSpace=wrap;html=1;" parent="k_Zv6ehU1yhQcLJYLRDA-1" vertex="1">
                    <mxGeometry x="240" y="1280" width="120" height="40" as="geometry"/>
                </mxCell>
                <mxCell id="k_Zv6ehU1yhQcLJYLRDA-32" value="Projects" style="rounded=0;whiteSpace=wrap;html=1;" parent="k_Zv6ehU1yhQcLJYLRDA-1" vertex="1">
                    <mxGeometry x="370" y="1280" width="120" height="40" as="geometry"/>
                </mxCell>
                <mxCell id="k_Zv6ehU1yhQcLJYLRDA-33" value="Dashboard" style="text;html=1;strokeColor=none;fillColor=none;align=center;verticalAlign=middle;whiteSpace=wrap;rounded=0;" parent="k_Zv6ehU1yhQcLJYLRDA-1" vertex="1">
                    <mxGeometry x="240" y="1330" width="60" height="30" as="geometry"/>
                </mxCell>
                <mxCell id="k_Zv6ehU1yhQcLJYLRDA-34" value="Recent projects" style="text;html=1;strokeColor=none;fillColor=none;align=left;verticalAlign=middle;whiteSpace=wrap;rounded=0;" parent="k_Zv6ehU1yhQcLJYLRDA-1" vertex="1">
                    <mxGeometry x="240" y="1405" width="90" height="30" as="geometry"/>
                </mxCell>
                <mxCell id="k_Zv6ehU1yhQcLJYLRDA-35" value="" style="rounded=0;whiteSpace=wrap;html=1;" parent="k_Zv6ehU1yhQcLJYLRDA-1" vertex="1">
                    <mxGeometry x="240" y="1440" width="840" height="270" as="geometry"/>
                </mxCell>
                <mxCell id="k_Zv6ehU1yhQcLJYLRDA-36" value="Search projects" style="rounded=0;whiteSpace=wrap;html=1;" parent="k_Zv6ehU1yhQcLJYLRDA-1" vertex="1">
                    <mxGeometry x="360" y="1400" width="120" height="40" as="geometry"/>
                </mxCell>
                <mxCell id="k_Zv6ehU1yhQcLJYLRDA-37" value="Project Name" style="rounded=0;whiteSpace=wrap;html=1;" parent="k_Zv6ehU1yhQcLJYLRDA-1" vertex="1">
                    <mxGeometry x="260" y="1520" width="125" height="40" as="geometry"/>
                </mxCell>
                <mxCell id="k_Zv6ehU1yhQcLJYLRDA-38" value="Mass Spec Count" style="rounded=0;whiteSpace=wrap;html=1;" parent="k_Zv6ehU1yhQcLJYLRDA-1" vertex="1">
                    <mxGeometry x="692" y="1519.99" width="110" height="40" as="geometry"/>
                </mxCell>
                <mxCell id="k_Zv6ehU1yhQcLJYLRDA-39" value="Project Description" style="rounded=0;whiteSpace=wrap;html=1;" parent="k_Zv6ehU1yhQcLJYLRDA-1" vertex="1">
                    <mxGeometry x="811" y="1519.99" width="120" height="40" as="geometry"/>
                </mxCell>
                <mxCell id="k_Zv6ehU1yhQcLJYLRDA-40" value="Date Created" style="rounded=0;whiteSpace=wrap;html=1;" parent="k_Zv6ehU1yhQcLJYLRDA-1" vertex="1">
                    <mxGeometry x="594" y="1519.99" width="90" height="40" as="geometry"/>
                </mxCell>
                <mxCell id="k_Zv6ehU1yhQcLJYLRDA-41" value="+" style="ellipse;whiteSpace=wrap;html=1;aspect=fixed;" parent="k_Zv6ehU1yhQcLJYLRDA-1" vertex="1">
                    <mxGeometry x="1050" y="1409.38" width="21.25" height="21.25" as="geometry"/>
                </mxCell>
                <mxCell id="k_Zv6ehU1yhQcLJYLRDA-42" value="" style="html=1;verticalLabelPosition=bottom;align=center;labelBackgroundColor=#ffffff;verticalAlign=top;strokeWidth=2;strokeColor=#0080F0;shadow=0;dashed=0;shape=mxgraph.ios7.icons.compose;" parent="k_Zv6ehU1yhQcLJYLRDA-1" vertex="1">
                    <mxGeometry x="370" y="1534.99" width="10" height="10" as="geometry"/>
                </mxCell>
                <mxCell id="k_Zv6ehU1yhQcLJYLRDA-43" value="" style="html=1;verticalLabelPosition=bottom;align=center;labelBackgroundColor=#ffffff;verticalAlign=top;strokeWidth=2;strokeColor=#0080F0;shadow=0;dashed=0;shape=mxgraph.ios7.icons.compose;" parent="k_Zv6ehU1yhQcLJYLRDA-1" vertex="1">
                    <mxGeometry x="1000" y="1525.44" width="29.1" height="29.1" as="geometry"/>
                </mxCell>
                <mxCell id="k_Zv6ehU1yhQcLJYLRDA-44" value="" style="html=1;verticalLabelPosition=bottom;align=center;labelBackgroundColor=#ffffff;verticalAlign=top;strokeWidth=2;strokeColor=#0080F0;shadow=0;dashed=0;shape=mxgraph.ios7.icons.trashcan;" parent="k_Zv6ehU1yhQcLJYLRDA-1" vertex="1">
                    <mxGeometry x="1040" y="1527.72" width="19.64" height="24.55" as="geometry"/>
                </mxCell>
                <mxCell id="k_Zv6ehU1yhQcLJYLRDA-45" value="ASC: Project Name" style="rounded=0;whiteSpace=wrap;html=1;" parent="k_Zv6ehU1yhQcLJYLRDA-1" vertex="1">
                    <mxGeometry x="260" y="1470" width="180" height="30" as="geometry"/>
                </mxCell>
                <mxCell id="k_Zv6ehU1yhQcLJYLRDA-46" value="" style="html=1;verticalLabelPosition=bottom;align=center;labelBackgroundColor=#ffffff;verticalAlign=top;strokeWidth=2;strokeColor=#0080F0;shadow=0;dashed=0;shape=mxgraph.ios7.icons.trashcan;" parent="k_Zv6ehU1yhQcLJYLRDA-1" vertex="1">
                    <mxGeometry x="419" y="1475" width="16" height="20" as="geometry"/>
                </mxCell>
                <mxCell id="k_Zv6ehU1yhQcLJYLRDA-47" value="ASC: Date Created" style="rounded=0;whiteSpace=wrap;html=1;" parent="k_Zv6ehU1yhQcLJYLRDA-1" vertex="1">
                    <mxGeometry x="450" y="1470" width="180" height="30" as="geometry"/>
                </mxCell>
                <mxCell id="k_Zv6ehU1yhQcLJYLRDA-48" value="" style="html=1;verticalLabelPosition=bottom;align=center;labelBackgroundColor=#ffffff;verticalAlign=top;strokeWidth=2;strokeColor=#0080F0;shadow=0;dashed=0;shape=mxgraph.ios7.icons.trashcan;" parent="k_Zv6ehU1yhQcLJYLRDA-1" vertex="1">
                    <mxGeometry x="609" y="1475" width="16" height="20" as="geometry"/>
                </mxCell>
                <mxCell id="k_Zv6ehU1yhQcLJYLRDA-49" value="ASC: Mass Spec" style="rounded=0;whiteSpace=wrap;html=1;" parent="k_Zv6ehU1yhQcLJYLRDA-1" vertex="1">
                    <mxGeometry x="650" y="1470" width="180" height="30" as="geometry"/>
                </mxCell>
                <mxCell id="k_Zv6ehU1yhQcLJYLRDA-50" value="" style="html=1;verticalLabelPosition=bottom;align=center;labelBackgroundColor=#ffffff;verticalAlign=top;strokeWidth=2;strokeColor=#0080F0;shadow=0;dashed=0;shape=mxgraph.ios7.icons.trashcan;" parent="k_Zv6ehU1yhQcLJYLRDA-1" vertex="1">
                    <mxGeometry x="809" y="1475" width="16" height="20" as="geometry"/>
                </mxCell>
                <mxCell id="k_Zv6ehU1yhQcLJYLRDA-51" value="&amp;lt; 123 .. 789 &amp;gt;" style="text;html=1;strokeColor=none;fillColor=none;align=center;verticalAlign=middle;whiteSpace=wrap;rounded=0;" parent="k_Zv6ehU1yhQcLJYLRDA-1" vertex="1">
                    <mxGeometry x="969.64" y="1655" width="90" height="30" as="geometry"/>
                </mxCell>
                <mxCell id="k_Zv6ehU1yhQcLJYLRDA-52" value="Recent ms data" style="text;html=1;strokeColor=none;fillColor=none;align=left;verticalAlign=middle;whiteSpace=wrap;rounded=0;" parent="k_Zv6ehU1yhQcLJYLRDA-1" vertex="1">
                    <mxGeometry x="240" y="1765" width="90" height="30" as="geometry"/>
                </mxCell>
                <mxCell id="k_Zv6ehU1yhQcLJYLRDA-53" value="" style="rounded=0;whiteSpace=wrap;html=1;" parent="k_Zv6ehU1yhQcLJYLRDA-1" vertex="1">
                    <mxGeometry x="240" y="1800" width="840" height="270" as="geometry"/>
                </mxCell>
                <mxCell id="k_Zv6ehU1yhQcLJYLRDA-54" value="Search ms data" style="rounded=0;whiteSpace=wrap;html=1;" parent="k_Zv6ehU1yhQcLJYLRDA-1" vertex="1">
                    <mxGeometry x="360" y="1760" width="120" height="40" as="geometry"/>
                </mxCell>
                <mxCell id="k_Zv6ehU1yhQcLJYLRDA-55" value="MS Data" style="rounded=0;whiteSpace=wrap;html=1;" parent="k_Zv6ehU1yhQcLJYLRDA-1" vertex="1">
                    <mxGeometry x="260" y="1880" width="125" height="40" as="geometry"/>
                </mxCell>
                <mxCell id="k_Zv6ehU1yhQcLJYLRDA-56" value="Date Created" style="rounded=0;whiteSpace=wrap;html=1;" parent="k_Zv6ehU1yhQcLJYLRDA-1" vertex="1">
                    <mxGeometry x="734.5" y="1880" width="110" height="40" as="geometry"/>
                </mxCell>
                <mxCell id="k_Zv6ehU1yhQcLJYLRDA-57" value="Vendor Name" style="rounded=0;whiteSpace=wrap;html=1;" parent="k_Zv6ehU1yhQcLJYLRDA-1" vertex="1">
                    <mxGeometry x="529.5" y="1880" width="90" height="40" as="geometry"/>
                </mxCell>
                <mxCell id="k_Zv6ehU1yhQcLJYLRDA-58" value="" style="html=1;verticalLabelPosition=bottom;align=center;labelBackgroundColor=#ffffff;verticalAlign=top;strokeWidth=2;strokeColor=#0080F0;shadow=0;dashed=0;shape=mxgraph.ios7.icons.compose;" parent="k_Zv6ehU1yhQcLJYLRDA-1" vertex="1">
                    <mxGeometry x="1002.9" y="1885.44" width="29.1" height="29.1" as="geometry"/>
                </mxCell>
                <mxCell id="k_Zv6ehU1yhQcLJYLRDA-59" value="" style="html=1;verticalLabelPosition=bottom;align=center;labelBackgroundColor=#ffffff;verticalAlign=top;strokeWidth=2;strokeColor=#0080F0;shadow=0;dashed=0;shape=mxgraph.ios7.icons.trashcan;" parent="k_Zv6ehU1yhQcLJYLRDA-1" vertex="1">
                    <mxGeometry x="1040" y="1887.7200000000003" width="19.64" height="24.55" as="geometry"/>
                </mxCell>
                <mxCell id="k_Zv6ehU1yhQcLJYLRDA-60" value="ASC: MS Data" style="rounded=0;whiteSpace=wrap;html=1;" parent="k_Zv6ehU1yhQcLJYLRDA-1" vertex="1">
                    <mxGeometry x="260" y="1830" width="180" height="30" as="geometry"/>
                </mxCell>
                <mxCell id="k_Zv6ehU1yhQcLJYLRDA-61" value="" style="html=1;verticalLabelPosition=bottom;align=center;labelBackgroundColor=#ffffff;verticalAlign=top;strokeWidth=2;strokeColor=#0080F0;shadow=0;dashed=0;shape=mxgraph.ios7.icons.trashcan;" parent="k_Zv6ehU1yhQcLJYLRDA-1" vertex="1">
                    <mxGeometry x="419" y="1835" width="16" height="20" as="geometry"/>
                </mxCell>
                <mxCell id="k_Zv6ehU1yhQcLJYLRDA-62" value="ASC: Date Created" style="rounded=0;whiteSpace=wrap;html=1;" parent="k_Zv6ehU1yhQcLJYLRDA-1" vertex="1">
                    <mxGeometry x="450" y="1830" width="180" height="30" as="geometry"/>
                </mxCell>
                <mxCell id="k_Zv6ehU1yhQcLJYLRDA-63" value="" style="html=1;verticalLabelPosition=bottom;align=center;labelBackgroundColor=#ffffff;verticalAlign=top;strokeWidth=2;strokeColor=#0080F0;shadow=0;dashed=0;shape=mxgraph.ios7.icons.trashcan;" parent="k_Zv6ehU1yhQcLJYLRDA-1" vertex="1">
                    <mxGeometry x="609" y="1835" width="16" height="20" as="geometry"/>
                </mxCell>
                <mxCell id="k_Zv6ehU1yhQcLJYLRDA-64" value="ASC: Project Name" style="rounded=0;whiteSpace=wrap;html=1;" parent="k_Zv6ehU1yhQcLJYLRDA-1" vertex="1">
                    <mxGeometry x="650" y="1830" width="180" height="30" as="geometry"/>
                </mxCell>
                <mxCell id="k_Zv6ehU1yhQcLJYLRDA-65" value="" style="html=1;verticalLabelPosition=bottom;align=center;labelBackgroundColor=#ffffff;verticalAlign=top;strokeWidth=2;strokeColor=#0080F0;shadow=0;dashed=0;shape=mxgraph.ios7.icons.trashcan;" parent="k_Zv6ehU1yhQcLJYLRDA-1" vertex="1">
                    <mxGeometry x="809" y="1835" width="16" height="20" as="geometry"/>
                </mxCell>
                <mxCell id="k_Zv6ehU1yhQcLJYLRDA-66" value="&amp;lt; 123 .. 789 &amp;gt;" style="text;html=1;strokeColor=none;fillColor=none;align=center;verticalAlign=middle;whiteSpace=wrap;rounded=0;" parent="k_Zv6ehU1yhQcLJYLRDA-1" vertex="1">
                    <mxGeometry x="969.64" y="2015" width="90" height="30" as="geometry"/>
                </mxCell>
                <mxCell id="k_Zv6ehU1yhQcLJYLRDA-67" value="Creator" style="rounded=0;whiteSpace=wrap;html=1;" parent="k_Zv6ehU1yhQcLJYLRDA-1" vertex="1">
                    <mxGeometry x="495" y="1519.99" width="90" height="40" as="geometry"/>
                </mxCell>
                <mxCell id="k_Zv6ehU1yhQcLJYLRDA-68" value="Creator" style="rounded=0;whiteSpace=wrap;html=1;" parent="k_Zv6ehU1yhQcLJYLRDA-1" vertex="1">
                    <mxGeometry x="629.5" y="1880" width="95" height="40" as="geometry"/>
                </mxCell>
                <mxCell id="k_Zv6ehU1yhQcLJYLRDA-69" value="Vendor Name" style="rounded=0;whiteSpace=wrap;html=1;" parent="k_Zv6ehU1yhQcLJYLRDA-1" vertex="1">
                    <mxGeometry x="395" y="1519.99" width="90" height="40" as="geometry"/>
                </mxCell>
                <mxCell id="k_Zv6ehU1yhQcLJYLRDA-70" value="Project Name" style="rounded=0;whiteSpace=wrap;html=1;" parent="k_Zv6ehU1yhQcLJYLRDA-1" vertex="1">
                    <mxGeometry x="854.5" y="1880" width="110" height="40" as="geometry"/>
                </mxCell>
                <mxCell id="k_Zv6ehU1yhQcLJYLRDA-71" value="ASC: Creator" style="rounded=0;whiteSpace=wrap;html=1;" parent="k_Zv6ehU1yhQcLJYLRDA-1" vertex="1">
                    <mxGeometry x="840" y="1830" width="180" height="30" as="geometry"/>
                </mxCell>
                <mxCell id="k_Zv6ehU1yhQcLJYLRDA-72" value="" style="html=1;verticalLabelPosition=bottom;align=center;labelBackgroundColor=#ffffff;verticalAlign=top;strokeWidth=2;strokeColor=#0080F0;shadow=0;dashed=0;shape=mxgraph.ios7.icons.trashcan;" parent="k_Zv6ehU1yhQcLJYLRDA-1" vertex="1">
                    <mxGeometry x="999" y="1835" width="16" height="20" as="geometry"/>
                </mxCell>
                <mxCell id="k_Zv6ehU1yhQcLJYLRDA-73" value="Dashboard Page" style="shape=umlFrame;whiteSpace=wrap;html=1;width=120;height=30;boundedLbl=1;verticalAlign=middle;align=left;spacingLeft=5;" parent="k_Zv6ehU1yhQcLJYLRDA-1" vertex="1">
                    <mxGeometry x="40" y="2160" width="1240" height="850" as="geometry"/>
                </mxCell>
                <mxCell id="k_Zv6ehU1yhQcLJYLRDA-74" value="NYNVR" style="rounded=0;whiteSpace=wrap;html=1;" parent="k_Zv6ehU1yhQcLJYLRDA-1" vertex="1">
                    <mxGeometry x="40" y="2200" width="120" height="40" as="geometry"/>
                </mxCell>
                <mxCell id="k_Zv6ehU1yhQcLJYLRDA-75" value="" style="ellipse;whiteSpace=wrap;html=1;aspect=fixed;" parent="k_Zv6ehU1yhQcLJYLRDA-1" vertex="1">
                    <mxGeometry x="1220" y="2197.5" width="45" height="45" as="geometry"/>
                </mxCell>
                <mxCell id="k_Zv6ehU1yhQcLJYLRDA-76" value="Dashboard" style="rounded=0;whiteSpace=wrap;html=1;" parent="k_Zv6ehU1yhQcLJYLRDA-1" vertex="1">
                    <mxGeometry x="240" y="2200" width="120" height="40" as="geometry"/>
                </mxCell>
                <mxCell id="k_Zv6ehU1yhQcLJYLRDA-77" value="&lt;u&gt;Projects&lt;/u&gt;" style="rounded=0;whiteSpace=wrap;html=1;" parent="k_Zv6ehU1yhQcLJYLRDA-1" vertex="1">
                    <mxGeometry x="370" y="2200" width="120" height="40" as="geometry"/>
                </mxCell>
                <mxCell id="k_Zv6ehU1yhQcLJYLRDA-78" value="Projects&amp;nbsp; &amp;gt;&amp;nbsp; Create Project" style="text;html=1;strokeColor=none;fillColor=none;align=center;verticalAlign=middle;whiteSpace=wrap;rounded=0;" parent="k_Zv6ehU1yhQcLJYLRDA-1" vertex="1">
                    <mxGeometry x="240" y="2250" width="170" height="30" as="geometry"/>
                </mxCell>
                <mxCell id="k_Zv6ehU1yhQcLJYLRDA-79" value="" style="rounded=0;whiteSpace=wrap;html=1;" parent="k_Zv6ehU1yhQcLJYLRDA-1" vertex="1">
                    <mxGeometry x="240" y="2360" width="840" height="610" as="geometry"/>
                </mxCell>
                <mxCell id="k_Zv6ehU1yhQcLJYLRDA-80" value="Project name" style="rounded=0;whiteSpace=wrap;html=1;" parent="k_Zv6ehU1yhQcLJYLRDA-1" vertex="1">
                    <mxGeometry x="280" y="2400" width="230" height="40" as="geometry"/>
                </mxCell>
                <mxCell id="k_Zv6ehU1yhQcLJYLRDA-81" value="Vendor" style="rounded=0;whiteSpace=wrap;html=1;" parent="k_Zv6ehU1yhQcLJYLRDA-1" vertex="1">
                    <mxGeometry x="280" y="2500" width="230" height="40" as="geometry"/>
                </mxCell>
                <mxCell id="k_Zv6ehU1yhQcLJYLRDA-82" value="MS Convert Parameters" style="rounded=0;whiteSpace=wrap;html=1;" parent="k_Zv6ehU1yhQcLJYLRDA-1" vertex="1">
                    <mxGeometry x="280" y="2550" width="230" height="40" as="geometry"/>
                </mxCell>
                <mxCell id="k_Zv6ehU1yhQcLJYLRDA-83" value="Project description" style="rounded=0;whiteSpace=wrap;html=1;" parent="k_Zv6ehU1yhQcLJYLRDA-1" vertex="1">
                    <mxGeometry x="280" y="2450" width="230" height="40" as="geometry"/>
                </mxCell>
                <mxCell id="k_Zv6ehU1yhQcLJYLRDA-84" value="" style="rounded=0;whiteSpace=wrap;html=1;" parent="k_Zv6ehU1yhQcLJYLRDA-1" vertex="1">
                    <mxGeometry x="280" y="2640" width="750" height="220" as="geometry"/>
                </mxCell>
                <mxCell id="k_Zv6ehU1yhQcLJYLRDA-85" value="Create project" style="rounded=0;whiteSpace=wrap;html=1;" parent="k_Zv6ehU1yhQcLJYLRDA-1" vertex="1">
                    <mxGeometry x="890" y="2890" width="142" height="40" as="geometry"/>
                </mxCell>
                <mxCell id="k_Zv6ehU1yhQcLJYLRDA-86" value="Cancel" style="rounded=0;whiteSpace=wrap;html=1;" parent="k_Zv6ehU1yhQcLJYLRDA-1" vertex="1">
                    <mxGeometry x="738" y="2890" width="142" height="40" as="geometry"/>
                </mxCell>
                <mxCell id="k_Zv6ehU1yhQcLJYLRDA-87" value="Dashboard Page" style="shape=umlFrame;whiteSpace=wrap;html=1;width=120;height=30;boundedLbl=1;verticalAlign=middle;align=left;spacingLeft=5;" parent="k_Zv6ehU1yhQcLJYLRDA-1" vertex="1">
                    <mxGeometry x="40" y="3080" width="1240" height="850" as="geometry"/>
                </mxCell>
                <mxCell id="k_Zv6ehU1yhQcLJYLRDA-88" value="NYNVR" style="rounded=0;whiteSpace=wrap;html=1;" parent="k_Zv6ehU1yhQcLJYLRDA-1" vertex="1">
                    <mxGeometry x="40" y="3120" width="120" height="40" as="geometry"/>
                </mxCell>
                <mxCell id="k_Zv6ehU1yhQcLJYLRDA-89" value="" style="ellipse;whiteSpace=wrap;html=1;aspect=fixed;" parent="k_Zv6ehU1yhQcLJYLRDA-1" vertex="1">
                    <mxGeometry x="1220" y="3117.5" width="45" height="45" as="geometry"/>
                </mxCell>
                <mxCell id="k_Zv6ehU1yhQcLJYLRDA-90" value="Dashboard" style="rounded=0;whiteSpace=wrap;html=1;" parent="k_Zv6ehU1yhQcLJYLRDA-1" vertex="1">
                    <mxGeometry x="240" y="3120" width="120" height="40" as="geometry"/>
                </mxCell>
                <mxCell id="k_Zv6ehU1yhQcLJYLRDA-91" value="&lt;u&gt;Projects&lt;/u&gt;" style="rounded=0;whiteSpace=wrap;html=1;" parent="k_Zv6ehU1yhQcLJYLRDA-1" vertex="1">
                    <mxGeometry x="370" y="3120" width="120" height="40" as="geometry"/>
                </mxCell>
                <mxCell id="k_Zv6ehU1yhQcLJYLRDA-92" value="Projects&amp;nbsp; &amp;gt;&amp;nbsp; Project X" style="text;html=1;strokeColor=none;fillColor=none;align=center;verticalAlign=middle;whiteSpace=wrap;rounded=0;" parent="k_Zv6ehU1yhQcLJYLRDA-1" vertex="1">
                    <mxGeometry x="240" y="3170" width="170" height="30" as="geometry"/>
                </mxCell>
                <mxCell id="k_Zv6ehU1yhQcLJYLRDA-93" value="" style="rounded=0;whiteSpace=wrap;html=1;" parent="k_Zv6ehU1yhQcLJYLRDA-1" vertex="1">
                    <mxGeometry x="240" y="3280" width="840" height="610" as="geometry"/>
                </mxCell>
                <mxCell id="k_Zv6ehU1yhQcLJYLRDA-94" value="Project name" style="rounded=0;whiteSpace=wrap;html=1;" parent="k_Zv6ehU1yhQcLJYLRDA-1" vertex="1">
                    <mxGeometry x="280" y="3320" width="230" height="40" as="geometry"/>
                </mxCell>
                <mxCell id="k_Zv6ehU1yhQcLJYLRDA-95" value="Vendor" style="rounded=0;whiteSpace=wrap;html=1;" parent="k_Zv6ehU1yhQcLJYLRDA-1" vertex="1">
                    <mxGeometry x="280" y="3420" width="230" height="40" as="geometry"/>
                </mxCell>
                <mxCell id="k_Zv6ehU1yhQcLJYLRDA-96" value="MS Convert Parameters" style="rounded=0;whiteSpace=wrap;html=1;" parent="k_Zv6ehU1yhQcLJYLRDA-1" vertex="1">
                    <mxGeometry x="280" y="3470" width="230" height="40" as="geometry"/>
                </mxCell>
                <mxCell id="k_Zv6ehU1yhQcLJYLRDA-97" value="Project description" style="rounded=0;whiteSpace=wrap;html=1;" parent="k_Zv6ehU1yhQcLJYLRDA-1" vertex="1">
                    <mxGeometry x="280" y="3370" width="230" height="40" as="geometry"/>
                </mxCell>
                <mxCell id="k_Zv6ehU1yhQcLJYLRDA-98" value="" style="rounded=0;whiteSpace=wrap;html=1;" parent="k_Zv6ehU1yhQcLJYLRDA-1" vertex="1">
                    <mxGeometry x="280" y="3560" width="750" height="220" as="geometry"/>
                </mxCell>
                <mxCell id="k_Zv6ehU1yhQcLJYLRDA-99" value="Back" style="rounded=0;whiteSpace=wrap;html=1;" parent="k_Zv6ehU1yhQcLJYLRDA-1" vertex="1">
                    <mxGeometry x="890" y="3810" width="142" height="40" as="geometry"/>
                </mxCell>
                <mxCell id="k_Zv6ehU1yhQcLJYLRDA-100" value="" style="html=1;verticalLabelPosition=bottom;align=center;labelBackgroundColor=#ffffff;verticalAlign=top;strokeWidth=2;strokeColor=#0080F0;shadow=0;dashed=0;shape=mxgraph.ios7.icons.compose;" parent="k_Zv6ehU1yhQcLJYLRDA-1" vertex="1">
                    <mxGeometry x="537.5" y="3335" width="10" height="10" as="geometry"/>
                </mxCell>
                <mxCell id="k_Zv6ehU1yhQcLJYLRDA-101" value="" style="html=1;verticalLabelPosition=bottom;align=center;labelBackgroundColor=#ffffff;verticalAlign=top;strokeWidth=2;strokeColor=#0080F0;shadow=0;dashed=0;shape=mxgraph.ios7.icons.compose;" parent="k_Zv6ehU1yhQcLJYLRDA-1" vertex="1">
                    <mxGeometry x="537.5" y="3385" width="10" height="10" as="geometry"/>
                </mxCell>
                <mxCell id="k_Zv6ehU1yhQcLJYLRDA-102" value="Search ms data" style="rounded=0;whiteSpace=wrap;html=1;" parent="k_Zv6ehU1yhQcLJYLRDA-1" vertex="1">
                    <mxGeometry x="909.1" y="2600" width="120" height="40" as="geometry"/>
                </mxCell>
                <mxCell id="k_Zv6ehU1yhQcLJYLRDA-103" value="Search ms data" style="rounded=0;whiteSpace=wrap;html=1;" parent="k_Zv6ehU1yhQcLJYLRDA-1" vertex="1">
                    <mxGeometry x="909.1" y="3520" width="120" height="40" as="geometry"/>
                </mxCell>
                <mxCell id="k_Zv6ehU1yhQcLJYLRDA-104" value="MS Data" style="rounded=0;whiteSpace=wrap;html=1;" parent="k_Zv6ehU1yhQcLJYLRDA-1" vertex="1">
                    <mxGeometry x="290" y="2730" width="125" height="40" as="geometry"/>
                </mxCell>
                <mxCell id="k_Zv6ehU1yhQcLJYLRDA-105" value="" style="html=1;verticalLabelPosition=bottom;align=center;labelBackgroundColor=#ffffff;verticalAlign=top;strokeWidth=2;strokeColor=#0080F0;shadow=0;dashed=0;shape=mxgraph.ios7.icons.trashcan;" parent="k_Zv6ehU1yhQcLJYLRDA-1" vertex="1">
                    <mxGeometry x="995.36" y="2737.7300000000005" width="19.64" height="24.55" as="geometry"/>
                </mxCell>
                <mxCell id="k_Zv6ehU1yhQcLJYLRDA-106" value="ASC: MS Data" style="rounded=0;whiteSpace=wrap;html=1;" parent="k_Zv6ehU1yhQcLJYLRDA-1" vertex="1">
                    <mxGeometry x="290" y="2680" width="180" height="30" as="geometry"/>
                </mxCell>
                <mxCell id="k_Zv6ehU1yhQcLJYLRDA-107" value="" style="html=1;verticalLabelPosition=bottom;align=center;labelBackgroundColor=#ffffff;verticalAlign=top;strokeWidth=2;strokeColor=#0080F0;shadow=0;dashed=0;shape=mxgraph.ios7.icons.trashcan;" parent="k_Zv6ehU1yhQcLJYLRDA-1" vertex="1">
                    <mxGeometry x="449" y="2685" width="16" height="20" as="geometry"/>
                </mxCell>
                <mxCell id="k_Zv6ehU1yhQcLJYLRDA-108" value="Converted MS Data" style="rounded=0;whiteSpace=wrap;html=1;" parent="k_Zv6ehU1yhQcLJYLRDA-1" vertex="1">
                    <mxGeometry x="394.5" y="1880" width="125" height="40" as="geometry"/>
                </mxCell>
                <mxCell id="k_Zv6ehU1yhQcLJYLRDA-109" value="" style="html=1;verticalLabelPosition=bottom;align=center;labelBackgroundColor=#ffffff;verticalAlign=top;strokeWidth=2;strokeColor=#0080F0;shadow=0;dashed=0;shape=mxgraph.ios7.icons.down;" parent="k_Zv6ehU1yhQcLJYLRDA-1" vertex="1">
                    <mxGeometry x="370" y="1895" width="8.24" height="10" as="geometry"/>
                </mxCell>
                <mxCell id="k_Zv6ehU1yhQcLJYLRDA-110" value="" style="html=1;verticalLabelPosition=bottom;align=center;labelBackgroundColor=#ffffff;verticalAlign=top;strokeWidth=2;strokeColor=#0080F0;shadow=0;dashed=0;shape=mxgraph.ios7.icons.down;" parent="k_Zv6ehU1yhQcLJYLRDA-1" vertex="1">
                    <mxGeometry x="506.76" y="1895" width="8.24" height="10" as="geometry"/>
                </mxCell>
                <mxCell id="k_Zv6ehU1yhQcLJYLRDA-111" value="" style="html=1;verticalLabelPosition=bottom;align=center;labelBackgroundColor=#ffffff;verticalAlign=top;strokeWidth=2;strokeColor=#0080F0;shadow=0;dashed=0;shape=mxgraph.ios7.icons.down;" parent="k_Zv6ehU1yhQcLJYLRDA-1" vertex="1">
                    <mxGeometry x="969.64" y="1884.7599999999998" width="25.1" height="30.46" as="geometry"/>
                </mxCell>
                <mxCell id="k_Zv6ehU1yhQcLJYLRDA-112" value="MS Data" style="rounded=0;whiteSpace=wrap;html=1;" parent="k_Zv6ehU1yhQcLJYLRDA-1" vertex="1">
                    <mxGeometry x="292.5" y="3630" width="125" height="40" as="geometry"/>
                </mxCell>
                <mxCell id="k_Zv6ehU1yhQcLJYLRDA-113" value="" style="html=1;verticalLabelPosition=bottom;align=center;labelBackgroundColor=#ffffff;verticalAlign=top;strokeWidth=2;strokeColor=#0080F0;shadow=0;dashed=0;shape=mxgraph.ios7.icons.trashcan;" parent="k_Zv6ehU1yhQcLJYLRDA-1" vertex="1">
                    <mxGeometry x="997.86" y="3637.7300000000005" width="19.64" height="24.55" as="geometry"/>
                </mxCell>
                <mxCell id="k_Zv6ehU1yhQcLJYLRDA-114" value="ASC: MS Data" style="rounded=0;whiteSpace=wrap;html=1;" parent="k_Zv6ehU1yhQcLJYLRDA-1" vertex="1">
                    <mxGeometry x="292.5" y="3580" width="180" height="30" as="geometry"/>
                </mxCell>
                <mxCell id="k_Zv6ehU1yhQcLJYLRDA-115" value="" style="html=1;verticalLabelPosition=bottom;align=center;labelBackgroundColor=#ffffff;verticalAlign=top;strokeWidth=2;strokeColor=#0080F0;shadow=0;dashed=0;shape=mxgraph.ios7.icons.trashcan;" parent="k_Zv6ehU1yhQcLJYLRDA-1" vertex="1">
                    <mxGeometry x="451.5" y="3585" width="16" height="20" as="geometry"/>
                </mxCell>
                <mxCell id="k_Zv6ehU1yhQcLJYLRDA-116" value="Converted MS Data" style="rounded=0;whiteSpace=wrap;html=1;" parent="k_Zv6ehU1yhQcLJYLRDA-1" vertex="1">
                    <mxGeometry x="425" y="3630.01" width="125" height="40" as="geometry"/>
                </mxCell>
                <mxCell id="k_Zv6ehU1yhQcLJYLRDA-117" value="Date Created" style="rounded=0;whiteSpace=wrap;html=1;" parent="k_Zv6ehU1yhQcLJYLRDA-1" vertex="1">
                    <mxGeometry x="559" y="3630" width="125" height="40" as="geometry"/>
                </mxCell>
                <mxCell id="k_Zv6ehU1yhQcLJYLRDA-118" value="ASC: Date Created" style="rounded=0;whiteSpace=wrap;html=1;" parent="k_Zv6ehU1yhQcLJYLRDA-1" vertex="1">
                    <mxGeometry x="480" y="3580" width="180" height="30" as="geometry"/>
                </mxCell>
                <mxCell id="k_Zv6ehU1yhQcLJYLRDA-119" value="" style="html=1;verticalLabelPosition=bottom;align=center;labelBackgroundColor=#ffffff;verticalAlign=top;strokeWidth=2;strokeColor=#0080F0;shadow=0;dashed=0;shape=mxgraph.ios7.icons.trashcan;" parent="k_Zv6ehU1yhQcLJYLRDA-1" vertex="1">
                    <mxGeometry x="639" y="3585" width="16" height="20" as="geometry"/>
                </mxCell>
            </root>
        </mxGraphModel>
    </diagram>
</mxfile>